<svg width="47" height="47" viewBox="0 0 47 47" fill="none" xmlns="http://www.w3.org/2000/svg">
<g filter="url(#filter0_d_292_211)">
<path d="M30.7609 19.5L41.5106 8.75029C42.8298 7.43115 42.8298 5.29238 41.5106 3.97217L39.1216 1.58311C37.8024 0.263965 35.6637 0.263965 34.3435 1.58311L23.5938 12.3328L12.844 1.58311C11.5249 0.263965 9.38613 0.263965 8.06592 1.58311L5.67686 3.97217C4.35771 5.29131 4.35771 7.43008 5.67686 8.75029L16.4266 19.5L5.67686 30.2497C4.35771 31.5688 4.35771 33.7076 5.67686 35.0278L8.06592 37.4169C9.38506 38.736 11.5249 38.736 12.844 37.4169L23.5938 26.6672L34.3435 37.4169C35.6626 38.736 37.8024 38.736 39.1216 37.4169L41.5106 35.0278C42.8298 33.7087 42.8298 31.5699 41.5106 30.2497L30.7609 19.5Z" fill="white"/>
</g>
<defs>
<filter id="filter0_d_292_211" x="0.6875" y="0.59375" width="45.8125" height="45.8125" filterUnits="userSpaceOnUse" color-interpolation-filters="sRGB">
<feFlood flood-opacity="0" result="BackgroundImageFix"/>
<feColorMatrix in="SourceAlpha" type="matrix" values="0 0 0 0 0 0 0 0 0 0 0 0 0 0 0 0 0 0 127 0" result="hardAlpha"/>
<feOffset dy="4"/>
<feGaussianBlur stdDeviation="2"/>
<feComposite in2="hardAlpha" operator="out"/>
<feColorMatrix type="matrix" values="0 0 0 0 0 0 0 0 0 0 0 0 0 0 0 0 0 0 0.25 0"/>
<feBlend mode="normal" in2="BackgroundImageFix" result="effect1_dropShadow_292_211"/>
<feBlend mode="normal" in="SourceGraphic" in2="effect1_dropShadow_292_211" result="shape"/>
</filter>
</defs>
</svg>
