<svg width="38" height="38" viewBox="0 0 38 38" fill="none" xmlns="http://www.w3.org/2000/svg">
<path d="M26.2609 19L37.0106 8.25029C38.3298 6.93115 38.3298 4.79238 37.0106 3.47217L34.6216 1.08311C33.3024 -0.236035 31.1637 -0.236035 29.8435 1.08311L19.0938 11.8328L8.34404 1.08311C7.0249 -0.236035 4.88613 -0.236035 3.56592 1.08311L1.17686 3.47217C-0.142285 4.79131 -0.142285 6.93008 1.17686 8.25029L11.9266 19L1.17686 29.7497C-0.142285 31.0688 -0.142285 33.2076 1.17686 34.5278L3.56592 36.9169C4.88506 38.236 7.0249 38.236 8.34404 36.9169L19.0938 26.1672L29.8435 36.9169C31.1626 38.236 33.3024 38.236 34.6216 36.9169L37.0106 34.5278C38.3298 33.2087 38.3298 31.0699 37.0106 29.7497L26.2609 19Z" fill="#FF5656"/>
</svg>
